<?xml version="1.0" encoding="utf-8"?>
<svg width="256" height="256" viewBox="0 0 256 256" fill="none" xmlns="http://www.w3.org/2000/svg">
  <defs>
    <linearGradient id="gradient_1" gradientUnits="userSpaceOnUse" x1="0" y1="0" x2="256" y2="256">
      <stop offset="0" stop-color="#F6339A" />
      <stop offset="1" stop-color="#C6005C" />
    </linearGradient>
    <clipPath id="clip_path_2">
      <rect width="256" height="256" rx="40" />
    </clipPath>
  </defs>
  <g clip-path="url(#clip_path_2)" transform="scale(1 1)">
    <rect width="256" height="256" fill="url(#gradient_1)" fill-rule="evenodd" />
    <g transform="matrix(1 0 0 1 32 32)">
      <path d="M48 112L72 112C72 112 72 128 72 128C72 132.418 75.5817 136 80 136C80 136 96 136 96 136C100.418 136 104 132.418 104 128C104 128 104 104 104 104C111.556 101.484 117.484 95.5557 120 88C120 88 128 88 128 88C132.418 88 136 84.4183 136 80C136 80 136 64 136 64C136 59.5817 132.418 56 128 56C128 56 120 56 120 56C120 43.4097 114.072 31.5542 104 24C104 24 104 0 104 0C93.9278 0 84.4433 4.74221 78.4 12.8C78.4 12.8 76 16 76 16C76 16 48 16 48 16C21.4903 16 3.8147e-06 37.4903 0 64C0 64 0 72 0 72C0 84.5903 5.92776 96.4458 16 104C16 104 16 128 16 128C16 132.418 19.5817 136 24 136C24 136 40 136 40 136C44.4183 136 48 132.418 48 128C48 128 48 112 48 112Z" fill="none" stroke-width="12" stroke="#FFFFFF" stroke-linecap="round" stroke-linejoin="round" transform="translate(40 24)" />
      <path d="M0 0L0.0800018 0" fill="none" stroke-width="12" stroke="#FFFFFF" stroke-linecap="round" stroke-linejoin="round" transform="translate(128.001 80)" />
      <path d="M0 0C0 0 0 8 0 8C0 16.8366 7.16344 24 16 24C16 24 24 24 24 24" fill="none" stroke-width="12" stroke="#FFFFFF" stroke-linecap="round" stroke-linejoin="round" transform="translate(16 64)" />
    </g>
  </g>
</svg>