<?xml version="1.0" encoding="utf-8"?>
<svg width="256" height="256" viewBox="0 0 256 256" fill="none" xmlns="http://www.w3.org/2000/svg">
  <defs>
    <linearGradient id="gradient_1" gradientUnits="userSpaceOnUse" x1="0" y1="0" x2="256" y2="256">
      <stop offset="0" stop-color="#62748E" />
      <stop offset="1" stop-color="#314158" />
    </linearGradient>
    <clipPath id="clip_path_2">
      <rect width="256" height="256" rx="40" />
    </clipPath>
  </defs>
  <g clip-path="url(#clip_path_2)" transform="scale(1 1)">
    <rect width="256" height="256" fill="url(#gradient_1)" fill-rule="evenodd" />
    <g transform="matrix(1 0 0 1 32 32)">
      <path d="M96 48C96 21.4903 74.5097 0 48 0C21.4903 0 0 21.4903 0 48" fill="none" stroke-width="12" stroke="#FFFFFF" stroke-linecap="round" stroke-linejoin="round" transform="translate(48 112)" />
      <path d="M0 32C0 14.3269 14.3269 0 32 0C49.6731 0 64 14.3269 64 32C64 49.6731 49.6731 64 32 64C14.3269 64 0 49.6731 0 32Z" fill="none" stroke-width="12" stroke="#FFFFFF" stroke-linecap="round" stroke-linejoin="round" transform="translate(64 48)" />
      <path d="M0 80C0 35.8172 35.8172 0 80 0C124.183 0 160 35.8172 160 80C160 124.183 124.183 160 80 160C35.8172 160 0 124.183 0 80Z" fill="none" stroke-width="12" stroke="#FFFFFF" stroke-linecap="round" stroke-linejoin="round" transform="translate(16 16)" />
    </g>
  </g>
</svg>